<svg width="30" height="30" viewBox="0 0 30 30" fill="none" xmlns="http://www.w3.org/2000/svg">
<rect width="30" height="30" fill="#D8D8D8" fill-opacity="0.01"/>
<mask id="path-2-inside-1" fill="white">
<path fill-rule="evenodd" clip-rule="evenodd" d="M10.4492 15.5754C10.0587 15.1848 9.42551 15.1848 9.03499 15.5754C8.64446 15.9659 8.64446 16.5991 9.03499 16.9896L12.4533 20.4079C12.8438 20.7984 13.477 20.7984 13.8675 20.4079L23.743 10.5324C24.1335 10.1419 24.1335 9.50874 23.743 9.11821C23.3525 8.72769 22.7193 8.72769 22.3288 9.11821L13.1604 18.2866L10.4492 15.5754Z"/>
</mask>
<path d="M13.8675 20.4079L12.4533 18.9937L13.8675 20.4079ZM23.743 10.5324L25.1572 11.9466L23.743 10.5324ZM22.3288 9.11821L23.743 10.5324L22.3288 9.11821ZM13.1604 18.2866L11.7462 19.7008L13.1604 21.115L14.5746 19.7008L13.1604 18.2866ZM10.4492 16.9896C10.0587 17.3801 9.42551 17.3801 9.03499 16.9896L11.8634 14.1612C10.6918 12.9896 8.79235 12.9896 7.62077 14.1612L10.4492 16.9896ZM10.4492 15.5754C10.8397 15.9659 10.8397 16.5991 10.4492 16.9896L7.62077 14.1612C6.4492 15.3327 6.4492 17.2322 7.62077 18.4038L10.4492 15.5754ZM13.8675 18.9937L10.4492 15.5754L7.62077 18.4038L11.0391 21.8221L13.8675 18.9937ZM12.4533 18.9937C12.8438 18.6032 13.477 18.6032 13.8675 18.9937L11.0391 21.8221C12.2107 22.9937 14.1102 22.9937 15.2817 21.8221L12.4533 18.9937ZM22.3288 9.11821L12.4533 18.9937L15.2817 21.8221L25.1572 11.9466L22.3288 9.11821ZM22.3288 10.5324C21.9383 10.1419 21.9383 9.50874 22.3288 9.11821L25.1572 11.9466C26.3288 10.7751 26.3288 8.87557 25.1572 7.704L22.3288 10.5324ZM23.743 10.5324C23.3525 10.9229 22.7193 10.9229 22.3288 10.5324L25.1572 7.704C23.9856 6.53243 22.0862 6.53242 20.9146 7.704L23.743 10.5324ZM14.5746 19.7008L23.743 10.5324L20.9146 7.704L11.7462 16.8724L14.5746 19.7008ZM9.03499 16.9896L11.7462 19.7008L14.5746 16.8724L11.8634 14.1612L9.03499 16.9896Z" fill="black" mask="url(#path-2-inside-1)"/>
</svg>
