<svg width="44" height="232" viewBox="0 0 44 232" fill="none" xmlns="http://www.w3.org/2000/svg">
<g clip-path="url(#clip0)">
<g filter="url(#filter0_d)">
<path fill-rule="evenodd" clip-rule="evenodd" d="M0 137.866L44 145.616C44 145.616 29.6834 200.272 22.9973 223.427C22 226.88 20.2151 231.472 16.0286 231C11.8421 230.528 5.57587 229.433 5.57587 229.433L0 137.866Z" fill="white"/>
<path fill-rule="evenodd" clip-rule="evenodd" d="M0 137.866L44 145.616C44 145.616 29.6834 200.272 22.9973 223.427C22 226.88 20.2151 231.472 16.0286 231C11.8421 230.528 5.57587 229.433 5.57587 229.433L0 137.866Z" fill="url(#paint0_linear)"/>
</g>
<g filter="url(#filter1_d)">
<path fill-rule="evenodd" clip-rule="evenodd" d="M8 0H18L8 230V0Z" fill="white"/>
</g>
</g>
<defs>
<filter id="filter0_d" x="0" y="137.866" width="48" height="97.168" filterUnits="userSpaceOnUse" color-interpolation-filters="sRGB">
<feFlood flood-opacity="0" result="BackgroundImageFix"/>
<feColorMatrix in="SourceAlpha" type="matrix" values="0 0 0 0 0 0 0 0 0 0 0 0 0 0 0 0 0 0 127 0"/>
<feOffset dx="2" dy="2"/>
<feGaussianBlur stdDeviation="1"/>
<feColorMatrix type="matrix" values="0 0 0 0 0 0 0 0 0 0 0 0 0 0 0 0 0 0 0.0556436 0"/>
<feBlend mode="normal" in2="BackgroundImageFix" result="effect1_dropShadow"/>
<feBlend mode="normal" in="SourceGraphic" in2="effect1_dropShadow" result="shape"/>
</filter>
<filter id="filter1_d" x="4" y="-2" width="18" height="238" filterUnits="userSpaceOnUse" color-interpolation-filters="sRGB">
<feFlood flood-opacity="0" result="BackgroundImageFix"/>
<feColorMatrix in="SourceAlpha" type="matrix" values="0 0 0 0 0 0 0 0 0 0 0 0 0 0 0 0 0 0 127 0"/>
<feOffset dy="2"/>
<feGaussianBlur stdDeviation="2"/>
<feColorMatrix type="matrix" values="0 0 0 0 0 0 0 0 0 0 0 0 0 0 0 0 0 0 0.215991 0"/>
<feBlend mode="normal" in2="BackgroundImageFix" result="effect1_dropShadow"/>
<feBlend mode="normal" in="SourceGraphic" in2="effect1_dropShadow" result="shape"/>
</filter>
<linearGradient id="paint0_linear" x1="7.71911" y1="124.436" x2="-41.6373" y2="186.504" gradientUnits="userSpaceOnUse">
<stop stop-opacity="0.01"/>
<stop offset="0.377404" stop-opacity="0.01"/>
<stop offset="0.950653" stop-opacity="0.258031"/>
<stop offset="1" stop-opacity="0.412287"/>
</linearGradient>
<clipPath id="clip0">
<rect width="44" height="232" fill="white"/>
</clipPath>
</defs>
</svg>
