<?xml version="1.0" encoding="UTF-8"?>
<svg width="22px" height="18px" viewBox="0 0 22 18" version="1.1" xmlns="http://www.w3.org/2000/svg" xmlns:xlink="http://www.w3.org/1999/xlink">
    <title>icons / phone / filled copy</title>
    <defs>
        <filter id="filter-1">
            <feColorMatrix in="SourceGraphic" type="matrix" values="0 0 0 0 1.000000 0 0 0 0 1.000000 0 0 0 0 1.000000 0 0 0 1.000000 0"></feColorMatrix>
        </filter>
    </defs>
    <g id="Symbols" stroke="none" stroke-width="1" fill="none" fill-rule="evenodd">
        <g id="Footer-/-desktop" transform="translate(-644.000000, -296.000000)" fill="#FFFFFF">
            <g id="Контакты">
                <g transform="translate(640.000000, 154.000000)">
                    <g filter="url(#filter-1)" id="icons-/-mail-/-filled">
                        <g transform="translate(0.000000, 136.000000)">
                            <g id="icons-/-mail" fill="none">
                                <polygon id="Path" points="0 0 30 0 30 30 0 30"></polygon>
                                <path d="M23.4901832,6.50981678 L6.50981678,6.50981678 C5.33711022,6.50981678 4.3978837,7.45965602 4.3978837,8.63236258 L4.38727097,21.3676374 C4.38727097,22.540344 5.33711022,23.4901832 6.50981678,23.4901832 L23.4901832,23.4901832 C24.6628898,23.4901832 25.612729,22.540344 25.612729,21.3676374 L25.612729,8.63236258 C25.612729,7.45965602 24.6628898,6.50981678 23.4901832,6.50981678 Z M23.4901832,10.7549084 L15,16.0612729 L6.50981678,10.7549084 L6.50981678,8.63236258 L15,13.9387271 L23.4901832,8.63236258 L23.4901832,10.7549084 Z" id="Shape" fill="#161545" fill-rule="nonzero"></path>
                            </g>
                        </g>
                    </g>
                </g>
            </g>
        </g>
    </g>
</svg>