<svg width="183" height="272" viewBox="0 0 183 272" fill="none" xmlns="http://www.w3.org/2000/svg">
<path d="M0 8C0 3.58172 3.58172 0 8 0H183V16H8C3.58172 16 0 12.4183 0 8V8Z" fill="#F3EBDA"/>
<mask id="mask0" mask-type="alpha" maskUnits="userSpaceOnUse" x="0" y="0" width="183" height="16">
<path d="M0 8C0 3.58172 3.58172 0 8 0H183V16H8C3.58172 16 0 12.4183 0 8V8Z" fill="white"/>
</mask>
<g mask="url(#mask0)">
<path d="M1.51143 2.5H181.975" stroke="#02439C" stroke-opacity="0.1"/>
<path d="M1.51143 0.5H183" stroke="#02439C" stroke-opacity="0.1"/>
<path d="M1.51143 4.5H181.31" stroke="#02439C" stroke-opacity="0.1"/>
<path d="M1.51143 6.5H180.64" stroke="#02439C" stroke-opacity="0.1"/>
<path d="M1.51143 8.5H180" stroke="#02439C" stroke-opacity="0.1"/>
<path d="M1.51143 10.5H179.347" stroke="#02439C" stroke-opacity="0.1"/>
<path d="M1.51143 12.5H178.506" stroke="#02439C" stroke-opacity="0.1"/>
<path d="M1.51143 14.5H177.718" stroke="#02439C" stroke-opacity="0.1"/>
</g>
<path fill-rule="evenodd" clip-rule="evenodd" d="M180 16.138H183V265.222L180 272V16.138Z" fill="#F3EBDA"/>
</svg>
