<?xml version="1.0" encoding="UTF-8"?>
<svg width="16px" height="24px" viewBox="0 0 16 24" version="1.1" xmlns="http://www.w3.org/2000/svg" xmlns:xlink="http://www.w3.org/1999/xlink">
    <title>icons / phone / filled</title>
    <defs>
        <filter id="filter-1">
            <feColorMatrix in="SourceGraphic" type="matrix" values="0 0 0 0 1.000000 0 0 0 0 1.000000 0 0 0 0 1.000000 0 0 0 1.000000 0"></feColorMatrix>
        </filter>
    </defs>
    <g id="Symbols" stroke="none" stroke-width="1" fill="none" fill-rule="evenodd">
        <g id="Footer-/-desktop" transform="translate(-647.000000, -193.000000)" fill="#FFFFFF">
            <g id="Контакты">
                <g transform="translate(640.000000, 154.000000)">
                    <g filter="url(#filter-1)" id="icons-/-phone-/-filled">
                        <g transform="translate(0.000000, 36.000000)">
                            <g id="icons-/-phone" fill="none">
                                <rect id="Rectangle" fill-opacity="0" fill="#D8D8D8" x="0" y="0" width="30" height="30"></rect>
                                <path d="M17.8722296,3 C19.6552671,3 20.3018396,3.18565122 20.9536914,3.53426541 C21.6055433,3.88287959 22.1171204,4.39445674 22.4657346,5.04630859 C22.8143488,5.69816044 23,6.34473292 23,8.1277704 L23,21.8722296 C23,23.6552671 22.8143488,24.3018396 22.4657346,24.9536914 C22.1171204,25.6055433 21.6055433,26.1171204 20.9536914,26.4657346 C20.3018396,26.8143488 19.6552671,27 17.8722296,27 L12.1277704,27 C10.3447329,27 9.69816044,26.8143488 9.04630859,26.4657346 C8.39445674,26.1171204 7.88287959,25.6055433 7.53426541,24.9536914 C7.20399934,24.3361475 7.01999365,23.723342 7.0015395,22.144484 L7,8.1277704 C7,6.34473292 7.18565122,5.69816044 7.53426541,5.04630859 C7.88287959,4.39445674 8.39445674,3.88287959 9.04630859,3.53426541 C9.66385245,3.20399934 10.276658,3.01999365 11.855516,3.0015395 L17.8722296,3 Z M15,20 C13.8954305,20 13,20.8954305 13,22 C13,23.1045695 13.8954305,24 15,24 C16.1045695,24 17,23.1045695 17,22 C17,20.8954305 16.1045695,20 15,20 Z" id="Combined-Shape" fill="#161545" fill-rule="nonzero"></path>
                            </g>
                        </g>
                    </g>
                </g>
            </g>
        </g>
    </g>
</svg>